G04 #@! TF.GenerationSoftware,KiCad,Pcbnew,(5.0.0-rc2-63-gd4393b281)*
G04 #@! TF.CreationDate,2018-06-03T20:37:34+01:00*
G04 #@! TF.ProjectId,wizardview-v1,77697A617264766965772D76312E6B69,rev?*
G04 #@! TF.SameCoordinates,Original*
G04 #@! TF.FileFunction,Soldermask,Bot*
G04 #@! TF.FilePolarity,Negative*
%FSLAX46Y46*%
G04 Gerber Fmt 4.6, Leading zero omitted, Abs format (unit mm)*
G04 Created by KiCad (PCBNEW (5.0.0-rc2-63-gd4393b281)) date 06/03/18 20:37:34*
%MOMM*%
%LPD*%
G01*
G04 APERTURE LIST*
%ADD10C,0.100000*%
%ADD11C,1.700000*%
%ADD12R,1.700000X1.700000*%
%ADD13O,1.600000X1.600000*%
%ADD14C,1.600000*%
%ADD15O,1.700000X1.700000*%
%ADD16R,1.600000X1.600000*%
%ADD17C,3.200000*%
G04 APERTURE END LIST*
D10*
X41000000Y-37000000D02*
X198000000Y-37000000D01*
X198000000Y-102000000D02*
X41000000Y-102000000D01*
X194000000Y-90000000D02*
X194000000Y-49000000D01*
X198000000Y-94000000D02*
G75*
G02X194000000Y-90000000I0J4000000D01*
G01*
X202000000Y-98000000D02*
G75*
G02X198000000Y-102000000I-4000000J0D01*
G01*
X198000000Y-94000000D02*
G75*
G02X202000000Y-98000000I0J-4000000D01*
G01*
X194000000Y-49000000D02*
G75*
G02X198000000Y-45000000I4000000J0D01*
G01*
X202000000Y-41000000D02*
G75*
G02X198000000Y-45000000I-4000000J0D01*
G01*
X198000000Y-37000000D02*
G75*
G02X202000000Y-41000000I0J-4000000D01*
G01*
X45000000Y-49000000D02*
X45000000Y-90000000D01*
X41000000Y-45000000D02*
G75*
G02X45000000Y-49000000I0J-4000000D01*
G01*
X37000000Y-41000000D02*
G75*
G02X41000000Y-37000000I4000000J0D01*
G01*
X41000000Y-45000000D02*
G75*
G02X37000000Y-41000000I0J4000000D01*
G01*
X45000000Y-90000000D02*
G75*
G02X41000000Y-94000000I-4000000J0D01*
G01*
X37000000Y-98000000D02*
G75*
G02X41000000Y-94000000I4000000J0D01*
G01*
X41000000Y-102000000D02*
G75*
G02X37000000Y-98000000I0J4000000D01*
G01*
D11*
G04 #@! TO.C,U3*
X97790000Y-99060000D03*
X100330000Y-99060000D03*
X102870000Y-99060000D03*
X105410000Y-99060000D03*
X107950000Y-99060000D03*
X110490000Y-99060000D03*
X113030000Y-99060000D03*
X115570000Y-99060000D03*
X118110000Y-99060000D03*
X120650000Y-99060000D03*
X123190000Y-99060000D03*
X125730000Y-99060000D03*
X128270000Y-99060000D03*
D12*
X130810000Y-99060000D03*
D11*
X133350000Y-99060000D03*
X97790000Y-83820000D03*
X100330000Y-83820000D03*
X102870000Y-83820000D03*
X105410000Y-83820000D03*
X107950000Y-83820000D03*
X110490000Y-83820000D03*
X113030000Y-83820000D03*
X115570000Y-83820000D03*
X118110000Y-83820000D03*
X120650000Y-83820000D03*
X123190000Y-83820000D03*
D12*
X125730000Y-83820000D03*
D11*
X128270000Y-83820000D03*
X130810000Y-83820000D03*
X133350000Y-83820000D03*
G04 #@! TD*
D13*
G04 #@! TO.C,R2*
X52070000Y-88900000D03*
D14*
X52070000Y-81280000D03*
G04 #@! TD*
D15*
G04 #@! TO.C,J1*
X47625000Y-86360000D03*
D12*
X47625000Y-83820000D03*
G04 #@! TD*
D13*
G04 #@! TO.C,R1*
X52070000Y-99060000D03*
D14*
X52070000Y-91440000D03*
G04 #@! TD*
D13*
G04 #@! TO.C,D1*
X47508686Y-91440000D03*
D16*
X47508686Y-99060000D03*
G04 #@! TD*
D15*
G04 #@! TO.C,OLED1*
X141605000Y-81280000D03*
X141605000Y-83820000D03*
X141605000Y-86360000D03*
D12*
X141605000Y-88900000D03*
G04 #@! TD*
G04 #@! TO.C,J2*
X191770000Y-99060000D03*
D15*
X189230000Y-99060000D03*
D12*
X191770000Y-96520000D03*
D15*
X189230000Y-96520000D03*
D12*
X191770000Y-93980000D03*
D15*
X189230000Y-93980000D03*
D12*
X191770000Y-91440000D03*
D15*
X189230000Y-91440000D03*
D12*
X191770000Y-88900000D03*
D15*
X189230000Y-88900000D03*
D12*
X191770000Y-86360000D03*
D11*
X189230000Y-86360000D03*
G04 #@! TD*
D17*
G04 #@! TO.C,REF\002A\002A*
X198000000Y-98000000D03*
G04 #@! TD*
G04 #@! TO.C,REF\002A\002A*
X198000000Y-41000000D03*
G04 #@! TD*
G04 #@! TO.C,REF\002A\002A*
X41000000Y-98000000D03*
G04 #@! TD*
G04 #@! TO.C,REF\002A\002A*
X41000000Y-41000000D03*
G04 #@! TD*
D11*
G04 #@! TO.C,J3*
X141605000Y-93980000D03*
D12*
X144145000Y-93980000D03*
D11*
X141605000Y-96520000D03*
D12*
X144145000Y-96520000D03*
D11*
X141605000Y-99060000D03*
D12*
X144145000Y-99060000D03*
G04 #@! TD*
M02*
