M48
;DRILL file {KiCad (5.0.0-rc2-63-gd4393b281)} date 06/03/18 20:37:36
;FORMAT={-:-/ absolute / inch / decimal}
FMAT,2
INCH,TZ
T1C0.0157
T2C0.0236
T3C0.0315
T4C0.0394
T5C0.1260
%
G90
G05
M72
T1
X1.825Y-1.625
X1.825Y-1.675
X1.85Y-1.6
X1.85Y-1.65
X1.875Y-1.625
X1.875Y-1.675
X1.9Y-1.6
X1.9Y-1.65
X1.925Y-1.625
X1.925Y-1.675
X1.95Y-1.6
X1.95Y-1.65
X1.95Y-2.775
X1.975Y-1.625
X1.975Y-1.675
X2.Y-1.6
X2.Y-1.65
X2.025Y-1.625
X2.025Y-1.675
X2.05Y-1.6
X2.05Y-1.65
X2.075Y-1.625
X2.075Y-1.675
X2.1Y-1.5
X2.1Y-1.55
X2.1Y-1.6
X2.1Y-1.65
X2.125Y-1.525
X2.125Y-1.575
X2.125Y-1.625
X2.125Y-1.675
X2.15Y-1.5
X2.15Y-1.55
X2.15Y-1.6
X2.15Y-1.65
X2.175Y-1.525
X2.175Y-1.575
X2.175Y-1.625
X2.175Y-1.675
X2.55Y-2.725
X2.68Y-1.495
X2.68Y-1.545
X2.68Y-1.595
X2.68Y-1.645
X2.705Y-1.52
X2.705Y-1.57
X2.705Y-1.62
X2.705Y-1.67
X2.73Y-1.495
X2.73Y-1.545
X2.73Y-1.595
X2.73Y-1.645
X2.755Y-1.52
X2.755Y-1.57
X2.755Y-1.62
X2.755Y-1.67
X2.78Y-1.595
X2.78Y-1.645
X2.805Y-1.62
X2.805Y-1.67
X2.825Y-2.7
X2.825Y-2.84
X2.83Y-1.595
X2.83Y-1.645
X2.855Y-1.62
X2.855Y-1.67
X2.88Y-1.595
X2.88Y-1.645
X2.905Y-1.62
X2.905Y-1.67
X2.925Y-2.725
X2.93Y-1.595
X2.93Y-1.645
X2.955Y-1.62
X2.955Y-1.67
X2.98Y-1.595
X2.98Y-1.645
X3.005Y-1.62
X3.005Y-1.67
X3.03Y-1.595
X3.03Y-1.645
X3.055Y-1.62
X3.055Y-1.67
X3.08Y-1.495
X3.08Y-1.545
X3.08Y-1.595
X3.08Y-1.645
X3.105Y-1.52
X3.105Y-1.57
X3.105Y-1.62
X3.105Y-1.67
X3.12Y-2.975
X3.13Y-1.495
X3.13Y-1.545
X3.13Y-1.595
X3.13Y-1.645
X3.155Y-1.52
X3.155Y-1.57
X3.155Y-1.62
X3.155Y-1.67
X3.525Y-2.725
X3.66Y-1.5
X3.66Y-1.55
X3.66Y-1.6
X3.66Y-1.65
X3.685Y-1.525
X3.685Y-1.575
X3.685Y-1.625
X3.685Y-1.675
X3.71Y-1.5
X3.71Y-1.55
X3.71Y-1.6
X3.71Y-1.65
X3.735Y-1.525
X3.735Y-1.575
X3.735Y-1.625
X3.735Y-1.675
X3.76Y-1.6
X3.76Y-1.65
X3.785Y-1.625
X3.785Y-1.675
X3.8Y-2.7
X3.8Y-2.84
X3.81Y-1.6
X3.81Y-1.65
X3.835Y-1.625
X3.835Y-1.675
X3.86Y-1.6
X3.86Y-1.65
X3.875Y-3.075
X3.885Y-1.625
X3.885Y-1.675
X3.9Y-2.725
X3.91Y-1.6
X3.91Y-1.65
X3.935Y-1.625
X3.935Y-1.675
X3.96Y-1.6
X3.96Y-1.65
X3.985Y-1.625
X3.985Y-1.675
X4.01Y-1.6
X4.01Y-1.65
X4.035Y-1.625
X4.035Y-1.675
X4.06Y-1.5
X4.06Y-1.55
X4.06Y-1.6
X4.06Y-1.65
X4.085Y-1.525
X4.085Y-1.575
X4.085Y-1.625
X4.085Y-1.675
X4.11Y-1.5
X4.11Y-1.55
X4.11Y-1.6
X4.11Y-1.65
X4.135Y-1.525
X4.135Y-1.575
X4.135Y-1.625
X4.135Y-1.675
X4.5Y-2.725
X4.5Y-3.055
X4.64Y-1.5
X4.64Y-1.55
X4.64Y-1.6
X4.64Y-1.65
X4.665Y-1.525
X4.665Y-1.575
X4.665Y-1.625
X4.665Y-1.675
X4.69Y-1.5
X4.69Y-1.55
X4.69Y-1.6
X4.69Y-1.65
X4.715Y-1.525
X4.715Y-1.575
X4.715Y-1.625
X4.715Y-1.675
X4.74Y-1.6
X4.74Y-1.65
X4.765Y-1.625
X4.765Y-1.675
X4.775Y-2.7
X4.775Y-2.84
X4.79Y-1.6
X4.79Y-1.65
X4.81Y-2.99
X4.815Y-1.625
X4.815Y-1.675
X4.84Y-1.6
X4.84Y-1.65
X4.865Y-1.625
X4.865Y-1.675
X4.875Y-2.725
X4.875Y-3.025
X4.89Y-1.6
X4.89Y-1.65
X4.915Y-1.625
X4.915Y-1.675
X4.94Y-1.6
X4.94Y-1.65
X4.965Y-1.625
X4.965Y-1.675
X4.975Y-2.84
X4.99Y-1.6
X4.99Y-1.65
X5.015Y-1.625
X5.015Y-1.675
X5.04Y-1.5
X5.04Y-1.55
X5.04Y-1.6
X5.04Y-1.65
X5.05Y-2.78
X5.065Y-1.525
X5.065Y-1.575
X5.065Y-1.625
X5.065Y-1.675
X5.09Y-1.5
X5.09Y-1.55
X5.09Y-1.6
X5.09Y-1.65
X5.115Y-1.525
X5.115Y-1.575
X5.115Y-1.625
X5.115Y-1.675
X5.575Y-2.725
X5.575Y-3.05
X5.62Y-1.5
X5.62Y-1.55
X5.62Y-1.6
X5.62Y-1.65
X5.645Y-1.525
X5.645Y-1.575
X5.645Y-1.625
X5.645Y-1.675
X5.67Y-1.5
X5.67Y-1.55
X5.67Y-1.6
X5.67Y-1.65
X5.695Y-1.525
X5.695Y-1.575
X5.695Y-1.625
X5.695Y-1.675
X5.72Y-1.6
X5.72Y-1.65
X5.745Y-1.625
X5.745Y-1.675
X5.75Y-2.7
X5.75Y-2.84
X5.77Y-1.6
X5.77Y-1.65
X5.795Y-1.625
X5.795Y-1.675
X5.82Y-1.6
X5.82Y-1.65
X5.845Y-1.625
X5.845Y-1.675
X5.85Y-2.725
X5.85Y-2.95
X5.87Y-1.6
X5.87Y-1.65
X5.895Y-1.625
X5.895Y-1.675
X5.92Y-1.6
X5.92Y-1.65
X5.945Y-1.625
X5.945Y-1.675
X5.97Y-1.6
X5.97Y-1.65
X5.995Y-1.625
X5.995Y-1.675
X6.02Y-1.5
X6.02Y-1.55
X6.02Y-1.6
X6.02Y-1.65
X6.045Y-1.525
X6.045Y-1.575
X6.045Y-1.625
X6.045Y-1.675
X6.07Y-1.5
X6.07Y-1.55
X6.07Y-1.6
X6.07Y-1.65
X6.095Y-1.525
X6.095Y-1.575
X6.095Y-1.625
X6.095Y-1.675
X6.465Y-2.72
X6.475Y-3.025
X6.6Y-1.5
X6.6Y-1.55
X6.6Y-1.6
X6.6Y-1.65
X6.625Y-1.525
X6.625Y-1.575
X6.625Y-1.625
X6.625Y-1.675
X6.65Y-1.5
X6.65Y-1.55
X6.65Y-1.6
X6.65Y-1.65
X6.675Y-1.525
X6.675Y-1.575
X6.675Y-1.625
X6.675Y-1.675
X6.7Y-1.6
X6.7Y-1.65
X6.725Y-1.625
X6.725Y-1.675
X6.725Y-2.7
X6.725Y-2.84
X6.75Y-1.6
X6.75Y-1.65
X6.775Y-1.625
X6.775Y-1.675
X6.8Y-1.6
X6.8Y-1.65
X6.825Y-1.625
X6.825Y-1.675
X6.84Y-2.95
X6.8433Y-2.7317
X6.85Y-1.6
X6.85Y-1.65
X6.875Y-1.625
X6.875Y-1.675
X6.9Y-1.6
X6.9Y-1.65
X6.925Y-1.625
X6.925Y-1.675
X6.95Y-1.6
X6.95Y-1.65
X6.975Y-1.625
X6.975Y-1.675
X7.Y-1.5
X7.Y-1.55
X7.Y-1.6
X7.Y-1.65
X7.025Y-1.525
X7.025Y-1.575
X7.025Y-1.625
X7.025Y-1.675
X7.05Y-1.5
X7.05Y-1.55
X7.05Y-1.6
X7.05Y-1.65
X7.075Y-1.525
X7.075Y-1.575
X7.075Y-1.625
X7.075Y-1.675
T2
X2.126Y-2.7165
X2.24Y-2.72
X2.25Y-2.9
X2.6378Y-2.7165
X2.675Y-3.7
X2.675Y-3.9
X3.1102Y-2.7165
X3.22Y-2.72
X3.225Y-2.9
X3.622Y-2.7165
X4.0945Y-2.7165
X4.2Y-2.72
X4.2Y-2.9
X4.6063Y-2.7165
X5.0787Y-2.7165
X5.18Y-2.72
X5.2Y-2.9
X5.6693Y-2.6772
X6.063Y-2.7165
X6.16Y-2.72
X6.175Y-2.9
X6.5748Y-2.7165
X7.0472Y-2.7165
X7.5591Y-2.7165
T3
X2.05Y-3.6
X2.05Y-3.9
X2.05Y-3.2
X2.05Y-3.5
X1.8704Y-3.6
X1.8704Y-3.9
T4
X5.575Y-3.2
X5.575Y-3.3
X5.575Y-3.4
X5.575Y-3.5
X3.85Y-3.3
X3.85Y-3.9
X3.95Y-3.3
X3.95Y-3.9
X4.05Y-3.3
X4.05Y-3.9
X4.15Y-3.3
X4.15Y-3.9
X4.25Y-3.3
X4.25Y-3.9
X4.35Y-3.3
X4.35Y-3.9
X4.45Y-3.3
X4.45Y-3.9
X4.55Y-3.3
X4.55Y-3.9
X4.65Y-3.3
X4.65Y-3.9
X4.75Y-3.3
X4.75Y-3.9
X4.85Y-3.3
X4.85Y-3.9
X4.95Y-3.3
X4.95Y-3.9
X5.05Y-3.3
X5.05Y-3.9
X5.15Y-3.3
X5.15Y-3.9
X5.25Y-3.3
X5.25Y-3.9
X1.875Y-3.3
X1.875Y-3.4
X5.575Y-3.7
X5.575Y-3.8
X5.575Y-3.9
X5.675Y-3.7
X5.675Y-3.8
X5.675Y-3.9
X7.45Y-3.4
X7.45Y-3.5
X7.45Y-3.6
X7.45Y-3.7
X7.45Y-3.8
X7.45Y-3.9
X7.55Y-3.4
X7.55Y-3.5
X7.55Y-3.6
X7.55Y-3.7
X7.55Y-3.8
X7.55Y-3.9
T5
X7.7953Y-1.6142
X1.6142Y-3.8583
X7.7953Y-3.8583
X1.6142Y-1.6142
T0
M30
